<svg xmlns="http://www.w3.org/2000/svg" xmlns:xlink="http://www.w3.org/1999/xlink" xmlns:sketch="http://www.bohemiancoding.com/sketch/ns" width="15px" height="15px" viewBox="0 0 32 40" version="1.1" x="0px" y="0px"><desc>Created with Sketch.</desc><g stroke="none" stroke-width="1" fill="none" fill-rule="evenodd" sketch:type="MSPage"><path d="M10.0274705,18.3363789 C9.70399308,18.184117 9.51564967,17.9413484 9.48921079,17.5516852 C9.47612538,17.3588289 9.30917668,17.2130959 9.11632044,17.2261813 C8.92346419,17.2392667 8.77773114,17.4062154 8.79081655,17.5990717 C8.83683637,18.277324 9.20610908,18.7361014 9.76636867,18.9867101 C10.1096081,19.1402439 10.4443101,19.1901489 10.6824941,19.1901489 C10.7070326,19.1901489 10.7309812,19.1876237 10.7540943,19.1828189 L11.389528,19.496219 L10.2763932,20.0527864 C10.029404,20.176281 9.92929178,20.4766175 10.0527864,20.7236068 C10.176281,20.970596 10.4766175,21.0707082 10.7236068,20.9472136 L12.7236068,19.9472136 C13.0921311,19.7629515 13.0921311,19.2370485 12.7236068,19.0527864 L10.7236068,18.0527864 C10.4766175,17.9292918 10.176281,18.029404 10.0527864,18.2763932 C10.0429389,18.2960881 10.0345133,18.3161223 10.0274705,18.3363789 Z M21.9728617,18.3376549 C22.2980024,18.1854745 22.4873271,17.9424387 22.51384,17.5516852 C22.5269254,17.3588289 22.6938741,17.2130959 22.8867303,17.2261813 C23.0795866,17.2392667 23.2253196,17.4062154 23.2122342,17.5990717 C23.1662144,18.277324 22.7969417,18.7361014 22.2366821,18.9867101 C21.8934427,19.1402439 21.5587407,19.1901489 21.3205566,19.1901489 C21.2952343,19.1901489 21.2705401,19.1874598 21.2467439,19.1823515 L20.6103625,19.496219 L21.7234973,20.0527864 C21.9704865,20.176281 22.0705987,20.4766175 21.9471041,20.7236068 C21.8236094,20.970596 21.5232729,21.0707082 21.2762837,20.9472136 L19.2762837,19.9472136 C18.9077594,19.7629515 18.9077594,19.2370485 19.2762837,19.0527864 L21.2762837,18.0527864 C21.5232729,17.9292918 21.8236094,18.029404 21.9471041,18.2763932 C21.9571583,18.2965016 21.9657303,18.3169636 21.9728617,18.3376549 L21.9728617,18.3376549 Z M8.94128995,26.613135 C9.01133409,26.690663 9.08258715,26.7676636 9.15505282,26.8440712 C11.0204,28.8108885 13.3014223,30 16,30 C18.6985777,30 20.9796001,28.8108885 22.8449474,26.8440712 C23.2505586,26.4163959 23.618179,25.9701407 23.9484581,25.5168339 C22.9430736,28.0136356 21.0789534,30.3093373 18.3855147,31.7370084 C26.4723157,33.4949166 31.2957042,26.2293585 29.6941691,16.2399596 C28.092634,6.25056066 23.5399638,5.50468686e-08 16,0 C8.46003622,-9.51865214e-16 3.90736599,6.25056061 2.30583091,16.2399596 C0.704295833,26.2293585 5.5276843,33.4949166 13.6144853,31.7370084 C11.4614343,30.5957726 9.93321655,28.7811917 8.94128995,26.613135 L8.94128995,26.613135 Z M24.8162927,21.5481442 C24.2642162,23.1458214 23.8781739,23.8083933 23.650585,24.1724621 C23.2277975,24.8487854 22.7171845,25.5255966 22.1193718,26.1559288 C20.4281851,27.9391115 18.3931276,29 16,29 C13.6068724,29 11.571815,27.9391115 9.88062843,26.1559288 C9.28281577,25.5255967 8.77220283,24.8487855 8.34941541,24.1724621 C8.25988368,24.0292402 8.10827622,23.8398227 7.93415185,23.5654528 C7.51150725,21.6593241 7.39795125,19.6211716 7.55009003,17.607761 C7.83016435,13.9012464 9.23781519,10.8021534 11.2661133,9.83886719 C12.058076,11.782627 16,12.6967773 19.234375,13.4099121 C23.144815,14.2721098 24.9719503,17.7444298 24.8162927,21.5481442 L24.8162927,21.5481442 Z M14,24.2999992 L14,24 C14,24 15,23.7553101 16,23.7553101 C17,23.7553101 18,24 18,24 L18,24.2999992 C18,24.2999992 18,26 16,26 C14,26 14,24.2999992 14,24.2999992 Z" fill="#666666" sketch:type="MSShapeGroup"/></g><text x="0" y="47" fill="#000000" font-size="5px" font-weight="bold" font-family="'Helvetica Neue', Helvetica, Arial-Unicode, Arial, Sans-serif">Created by Pham Thi Dieu Linh</text><text x="0" y="52" fill="#000000" font-size="5px" font-weight="bold" font-family="'Helvetica Neue', Helvetica, Arial-Unicode, Arial, Sans-serif">from the Noun Project</text></svg>