<svg xmlns="http://www.w3.org/2000/svg" xmlns:xlink="http://www.w3.org/1999/xlink" xmlns:sketch="http://www.bohemiancoding.com/sketch/ns" viewBox="0 0 32 40" version="1.1" x="0px" y="0px"><desc>Created with Sketch.</desc><g stroke="none" stroke-width="1" fill="none" fill-rule="evenodd" sketch:type="MSPage"><path d="M24.5728851,23.0941141 C26.0847779,16.969087 23.5542402,12.1548858 21.4280864,11.0822754 C19.598459,12.7549171 13.9938462,17 10.2890466,17 C12.2343263,15.4384766 12.8488535,12.9394531 12.8488535,12.9394531 C12.8488535,12.9394531 10.9859461,15.7346191 7.24611965,17 C6.45154466,18.5731485 6.67682658,20.3507184 6.78659707,21.5361582 C6.84777749,21.7403698 6.95210509,22.0855229 6.99214296,22.1994274 C7.09055416,22.4793995 7.21210961,22.7924224 7.35775135,23.1301118 C7.774276,24.0958785 8.2986796,25.0616511 8.9372701,25.9603932 C10.738893,28.4959687 13.0675623,30 16,30 C18.9311427,30 21.2399187,28.4973998 23.0104666,25.9636063 C23.6381381,25.065359 24.1509411,24.1000358 24.5559252,23.1346951 C24.5616169,23.1211281 24.5672702,23.1076009 24.5728851,23.0941141 L24.5728851,23.0941141 Z M5.94669386,22.2116429 C4.61458602,20.1217921 3.13011281,13.1987617 4.62664708,8.75830078 C6.40621687,3.47802734 12.6103081,1 15.7729333,1 C18.8013894,1.00000002 21.8450169,1.93994141 23.0552307,3.80615234 C23.0552307,3.80615234 25.0915798,2.75024414 26.9020692,3.80615234 C25.0915798,4.17895508 24.887945,5.19335938 24.887945,5.19335938 C27.9234944,6.90377632 29.4577737,17.0840684 26.1082885,21.6811732 C26.0708438,21.8119773 25.9120331,22.3649335 25.857287,22.526075 C25.7549564,22.8272785 25.6289716,23.1618434 25.4780638,23.5215549 C25.0472763,24.5484017 24.5017812,25.575266 23.8301706,26.5363937 C21.888484,29.3151002 19.2996007,31 16,31 C12.7016943,31 10.0952049,29.3165313 8.12209422,26.5396068 C7.43952798,25.5789739 6.88219633,24.552559 6.43951227,23.5261382 C6.28443097,23.166562 6.15455941,22.832124 6.04872776,22.5310413 C6.02660008,22.4680898 5.98792403,22.3454665 5.94669386,22.2116429 L5.94669386,22.2116429 Z M20,22.75 C21.2564444,22.75 22.25,21.5080556 22.25,20 C22.25,18.4919444 21.2564444,17.25 20,17.25 C18.7435556,17.25 17.75,18.4919444 17.75,20 C17.75,21.5080556 18.7435556,22.75 20,22.75 Z M20,22.25 C19.0473054,22.25 18.25,21.2533682 18.25,20 C18.25,18.7466318 19.0473054,17.75 20,17.75 C20.9526946,17.75 21.75,18.7466318 21.75,20 C21.75,21.2533682 20.9526946,22.25 20,22.25 Z M20,21.5 C20.5522847,21.5 21,20.8284271 21,20 C21,19.1715729 20.5522847,18.5 20,18.5 C19.4477153,18.5 19,19.1715729 19,20 C19,20.8284271 19.4477153,21.5 20,21.5 Z M12,22.75 C13.2564444,22.75 14.25,21.5080556 14.25,20 C14.25,18.4919444 13.2564444,17.25 12,17.25 C10.7435556,17.25 9.75,18.4919444 9.75,20 C9.75,21.5080556 10.7435556,22.75 12,22.75 Z M12,22.25 C11.0473054,22.25 10.25,21.2533682 10.25,20 C10.25,18.7466318 11.0473054,17.75 12,17.75 C12.9526946,17.75 13.75,18.7466318 13.75,20 C13.75,21.2533682 12.9526946,22.25 12,22.25 Z M12,21.5 C12.5522847,21.5 13,20.8284271 13,20 C13,19.1715729 12.5522847,18.5 12,18.5 C11.4477153,18.5 11,19.1715729 11,20 C11,20.8284271 11.4477153,21.5 12,21.5 Z M14.4246316,25.2360832 C14.4725953,25.313235 14.5938453,25.4556475 14.7863941,25.6025372 C15.1127054,25.8514701 15.512309,26.0000681 16,26.0000681 C16.487691,26.0000681 16.8872946,25.8514701 17.2136059,25.6025372 C17.4061547,25.4556475 17.5274047,25.313235 17.5753684,25.2360832 C17.7211632,25.0015657 18.0294673,24.9296417 18.2639848,25.0754365 C18.4985024,25.2212313 18.5704264,25.5295353 18.4246316,25.7640529 C18.3171754,25.9369012 18.1191505,26.1694886 17.8201344,26.3975989 C17.3271707,26.773666 16.7183393,27.0000681 16,27.0000681 C15.2816607,27.0000681 14.6728293,26.773666 14.1798656,26.3975989 C13.8808495,26.1694886 13.6828246,25.9369012 13.5753684,25.7640529 C13.4295736,25.5295353 13.5014976,25.2212313 13.7360152,25.0754365 C13.9705327,24.9296417 14.2788368,25.0015657 14.4246316,25.2360832 Z" fill="#666666" sketch:type="MSShapeGroup"/></g><text x="0" y="47" fill="#000000" font-size="5px" font-weight="bold" font-family="'Helvetica Neue', Helvetica, Arial-Unicode, Arial, Sans-serif">Created by Pham Thi Dieu Linh</text><text x="0" y="52" fill="#000000" font-size="5px" font-weight="bold" font-family="'Helvetica Neue', Helvetica, Arial-Unicode, Arial, Sans-serif">from the Noun Project</text></svg>